<svg xmlns="http://www.w3.org/2000/svg" version="1.1" xmlns:xlink="http://www.w3.org/1999/xlink" xmlns:svgjs="http://svgjs.dev/svgjs" width="1000" height="623" viewBox="0 0 1000 623"><g transform="matrix(1,0,0,1,-0.6060606060606233,0.2522267206477409)"><svg viewBox="0 0 396 247" data-background-color="#ffffff" preserveAspectRatio="xMidYMid meet" height="623" width="1000" xmlns="http://www.w3.org/2000/svg" xmlns:xlink="http://www.w3.org/1999/xlink"><g id="tight-bounds" transform="matrix(1,0,0,1,0.2400000000000091,-0.09999999999999432)"><svg viewBox="0 0 395.52 247.2" height="247.2" width="395.52"><g><svg></svg></g><g><svg viewBox="0 0 395.52 247.2" height="247.2" width="395.52"><g transform="matrix(1,0,0,1,75.54432,70.97610346572262)"><svg viewBox="0 0 244.43135999999998 105.24779306855476" height="105.24779306855476" width="244.43135999999998"><g><svg viewBox="0 0 244.43135999999998 105.24779306855476" height="105.24779306855476" width="244.43135999999998"><g><svg viewBox="0 0 244.43135999999998 105.24779306855476" height="105.24779306855476" width="244.43135999999998"><g><svg viewBox="0 0 244.43135999999998 105.24779306855476" height="105.24779306855476" width="244.43135999999998"><g id="textblocktransform"><svg viewBox="0 0 244.43135999999998 105.24779306855476" height="105.24779306855476" width="244.43135999999998" id="textblock"><g><svg viewBox="0 0 244.43135999999998 63.99684021543984" height="63.99684021543984" width="244.43135999999998"><g transform="matrix(1,0,0,1,0,0)"><svg width="244.43135999999998" viewBox="1.25 -36 167.08999633789062 43.75" height="63.99684021543984" data-palette-color="#d9bca9"><path d="M18.9 0.45L18.9 0.45Q14.75 0.45 11.78-0.33 8.8-1.1 6.3-3.1L6.3-3.1Q1.25-7.05 1.25-18.25L1.25-18.25Q1.25-22.95 2.63-26.45 4-29.95 6.45-32L6.45-32Q11.25-36 18.9-36L18.9-36Q22.85-36 25.78-35.3 28.7-34.6 31.3-32.75L31.3-32.75Q36.55-28.95 36.55-18.25L36.55-18.25Q36.55-8.65 31.8-4.1 27.05 0.45 18.9 0.45ZM17.25-8.13Q17.85-7.4 18.9-7.4 19.95-7.4 20.55-8.13 21.15-8.85 21.55-11.23 21.95-13.6 21.95-17.85 21.95-22.1 21.55-24.4 21.15-26.7 20.55-27.4 19.95-28.1 18.9-28.1 17.85-28.1 17.25-27.4 16.65-26.7 16.25-24.4 15.85-22.1 15.85-17.85 15.85-13.6 16.25-11.23 16.65-8.85 17.25-8.13ZM56.25-3.3L56.25-3.3 56.25-6.2 55.85-6.2Q55.65-5.95 55.15-5.58 54.65-5.2 52.67-4.55 50.7-3.9 48.22-3.9 45.75-3.9 44.05-4.65 42.35-5.4 41.4-6.53 40.45-7.65 39.9-9.55L39.9-9.55Q39.05-12.5 39.05-17.55L39.05-17.55Q39.05-23.35 41.5-26.45L41.5-26.45Q42.45-27.7 44.32-28.58 46.2-29.45 48.35-29.45 50.5-29.45 51.9-28.98 53.3-28.5 54-27.85L54-27.85Q55.4-26.45 55.6-25.4L55.6-25.4 55.65-24.95 56.05-24.95 56.5-26.9Q57-29 64.4-29L64.4-29Q67.7-29 68.4-28L68.4-28Q68.8-27.4 68.9-26.88 69-26.35 69-25.3L69-25.3 69-4.35Q69 1.55 65.15 4.65 61.3 7.75 53.85 7.75L53.85 7.75Q45.95 7.75 43.1 6.2L43.1 6.2Q41.85 5.5 41.85 4.75L41.85 4.75Q41.85 3.55 42.82 0.7 43.8-2.15 44.65-2.15L44.65-2.15Q44.85-2.15 46.05-1.8L46.05-1.8Q49.85-0.8 52.22-0.8 54.6-0.8 55.42-1.4 56.25-2 56.25-3.3ZM54.25-9.6L54.25-9.6Q54.8-9.6 55.15-10 55.5-10.4 55.5-10.9L55.5-10.9 55.5-21.2Q55.3-22.25 54.4-22.25L54.4-22.25Q52.5-22.25 52.5-16L52.5-16Q52.5-13.1 52.97-11.35 53.45-9.6 54.25-9.6ZM82 0.45L82 0.45Q77.45 0.45 74.84-1.7L74.84-1.7Q73.8-2.6 73.02-4.35 72.25-6.1 72.25-8.45 72.25-10.8 73.37-12.55 74.5-14.3 76.09-15.25 77.7-16.2 79.84-16.8L79.84-16.8Q83.09-17.65 87-17.65L87-17.65 88.65-17.65Q88.65-19.7 87.25-20.55L87.25-20.55Q86.65-20.9 85.42-20.9 84.2-20.9 82.47-20.25 80.75-19.6 79.59-18.93 78.45-18.25 78.05-18.25L78.05-18.25Q77.15-18.25 75.59-20.63 74.05-23 74.05-24.95L74.05-24.95Q74.05-25.6 75.9-26.65 77.75-27.7 81.12-28.58 84.5-29.45 87.7-29.45 90.9-29.45 93.22-28.93 95.55-28.4 97.02-27.65 98.5-26.9 99.52-25.65 100.55-24.4 101.07-23.4 101.59-22.4 101.84-20.8L101.84-20.8Q102.2-18.95 102.2-16.25L102.2-16.25 102.2-1.2Q102.2-0.65 99.52-0.33 96.84 0 94.22 0 91.59 0 90.82-0.15 90.05-0.3 89.9-0.5 89.75-0.7 89.65-1.2L89.65-1.2 89.25-4.05 88.84-4.05Q87.59 0.45 82 0.45ZM88.7-7.85L88.7-7.85 88.7-13.7Q87.4-13.7 86.59-12.6 85.8-11.5 85.8-10.1L85.8-10.1Q85.8-6.8 87.3-6.8L87.3-6.8Q87.95-6.8 88.32-7.13 88.7-7.45 88.7-7.85ZM122.39-3.3L122.39-3.3 122.39-6.2 121.99-6.2Q121.79-5.95 121.29-5.58 120.79-5.2 118.82-4.55 116.84-3.9 114.37-3.9 111.89-3.9 110.19-4.65 108.49-5.4 107.54-6.53 106.59-7.65 106.04-9.55L106.04-9.55Q105.19-12.5 105.19-17.55L105.19-17.55Q105.19-23.35 107.64-26.45L107.64-26.45Q108.59-27.7 110.47-28.58 112.34-29.45 114.49-29.45 116.64-29.45 118.04-28.98 119.44-28.5 120.14-27.85L120.14-27.85Q121.54-26.45 121.74-25.4L121.74-25.4 121.79-24.95 122.19-24.95 122.64-26.9Q123.14-29 130.54-29L130.54-29Q133.84-29 134.54-28L134.54-28Q134.94-27.4 135.04-26.88 135.14-26.35 135.14-25.3L135.14-25.3 135.14-4.35Q135.14 1.55 131.29 4.65 127.44 7.75 119.99 7.75L119.99 7.75Q112.09 7.75 109.24 6.2L109.24 6.2Q107.99 5.5 107.99 4.75L107.99 4.75Q107.99 3.55 108.97 0.7 109.94-2.15 110.79-2.15L110.79-2.15Q110.99-2.15 112.19-1.8L112.19-1.8Q115.99-0.8 118.37-0.8 120.74-0.8 121.57-1.4 122.39-2 122.39-3.3ZM120.39-9.6L120.39-9.6Q120.94-9.6 121.29-10 121.64-10.4 121.64-10.9L121.64-10.9 121.64-21.2Q121.44-22.25 120.54-22.25L120.54-22.25Q118.64-22.25 118.64-16L118.64-16Q118.64-13.1 119.12-11.35 119.59-9.6 120.39-9.6ZM148.14 0.45L148.14 0.45Q143.59 0.45 140.99-1.7L140.99-1.7Q139.94-2.6 139.17-4.35 138.39-6.1 138.39-8.45 138.39-10.8 139.52-12.55 140.64-14.3 142.24-15.25 143.84-16.2 145.99-16.8L145.99-16.8Q149.24-17.65 153.14-17.65L153.14-17.65 154.79-17.65Q154.79-19.7 153.39-20.55L153.39-20.55Q152.79-20.9 151.57-20.9 150.34-20.9 148.62-20.25 146.89-19.6 145.74-18.93 144.59-18.25 144.19-18.25L144.19-18.25Q143.29-18.25 141.74-20.63 140.19-23 140.19-24.95L140.19-24.95Q140.19-25.6 142.04-26.65 143.89-27.7 147.27-28.58 150.64-29.45 153.84-29.45 157.04-29.45 159.37-28.93 161.69-28.4 163.17-27.65 164.64-26.9 165.67-25.65 166.69-24.4 167.22-23.4 167.74-22.4 167.99-20.8L167.99-20.8Q168.34-18.95 168.34-16.25L168.34-16.25 168.34-1.2Q168.34-0.65 165.67-0.33 162.99 0 160.37 0 157.74 0 156.97-0.15 156.19-0.3 156.04-0.5 155.89-0.7 155.79-1.2L155.79-1.2 155.39-4.05 154.99-4.05Q153.74 0.45 148.14 0.45ZM154.84-7.85L154.84-7.85 154.84-13.7Q153.54-13.7 152.74-12.6 151.94-11.5 151.94-10.1L151.94-10.1Q151.94-6.8 153.44-6.8L153.44-6.8Q154.09-6.8 154.47-7.13 154.84-7.45 154.84-7.85Z" opacity="1" transform="matrix(1,0,0,1,0,0)" fill="#d9bca9" class="wordmark-text-0" data-fill-palette-color="primary" id="text-0"></path></svg></g></svg></g><g transform="matrix(1,0,0,1,0,79.10495826614002)"><svg viewBox="0 0 244.43135999999998 26.14283480241474" height="26.14283480241474" width="244.43135999999998"><g transform="matrix(1,0,0,1,0,0)"><svg width="244.43135999999998" viewBox="3.094871759414673 -39.54999923706055 470.72320556640625 50.349998474121094" height="26.14283480241474" data-palette-color="#7c4e29"><path d="M17 0.5L17 0.5Q13.8 0.5 11.08-0.43 8.35-1.35 6.35-3.05 4.35-4.75 3.3-7L3.3-7Q2.9-7.8 3.28-8.47 3.65-9.15 4.55-9.4L4.55-9.4Q5.25-9.6 5.93-9.25 6.6-8.9 6.95-8.2L6.95-8.2Q7.7-6.75 9.15-5.6 10.6-4.45 12.6-3.83 14.6-3.2 17-3.2L17-3.2Q19.65-3.2 21.7-4.08 23.75-4.95 24.93-6.63 26.1-8.3 26.1-10.7L26.1-10.7Q26.1-13.75 23.85-15.95 21.6-18.15 16.8-18.75L16.8-18.75Q10.95-19.45 7.65-22.38 4.35-25.3 4.35-29.55L4.35-29.55Q4.35-32.6 5.98-34.85 7.6-37.1 10.45-38.33 13.3-39.55 17-39.55L17-39.55Q19.75-39.55 22-38.68 24.25-37.8 25.93-36.38 27.6-34.95 28.65-33.25L28.65-33.25Q29.15-32.45 28.98-31.7 28.8-30.95 28.1-30.55L28.1-30.55Q27.35-30.2 26.58-30.45 25.8-30.7 25.4-31.4L25.4-31.4Q24.65-32.55 23.53-33.58 22.4-34.6 20.8-35.2 19.2-35.8 16.95-35.85L16.95-35.85Q13-35.85 10.6-34.18 8.2-32.5 8.2-29.3L8.2-29.3Q8.2-27.6 9.1-26.18 10-24.75 12.08-23.73 14.15-22.7 17.65-22.2L17.65-22.2Q23.9-21.3 26.93-18.38 29.95-15.45 29.95-10.75L29.95-10.75Q29.95-8.05 28.98-5.95 28-3.85 26.23-2.43 24.45-1 22.08-0.25 19.7 0.5 17 0.5ZM50.05 0.25L50.05 0.25Q46.05 0.25 42.9-1.55 39.75-3.35 37.95-6.5 36.15-9.65 36.15-13.65L36.15-13.65Q36.15-17.7 37.95-20.85 39.75-24 42.9-25.8 46.05-27.6 50.05-27.6L50.05-27.6Q54.05-27.6 57.17-25.8 60.3-24 62.1-20.85 63.9-17.7 63.95-13.65L63.95-13.65Q63.95-9.65 62.12-6.5 60.3-3.35 57.17-1.55 54.05 0.25 50.05 0.25ZM50.05-3.25L50.05-3.25Q52.95-3.25 55.25-4.6 57.55-5.95 58.85-8.3 60.15-10.65 60.15-13.65L60.15-13.65Q60.15-16.65 58.85-19.03 57.55-21.4 55.25-22.75 52.95-24.1 50.05-24.1L50.05-24.1Q47.15-24.1 44.85-22.75 42.55-21.4 41.22-19.03 39.9-16.65 39.9-13.65L39.9-13.65Q39.9-10.65 41.22-8.3 42.55-5.95 44.85-4.6 47.15-3.25 50.05-3.25ZM74.85 0L74.85 0Q74.1 0 73.55-0.53 73-1.05 73-1.95L73-1.95 73-27.3Q73-30.8 74.2-33.45 75.4-36.1 77.75-37.58 80.1-39.05 83.5-39.05L83.5-39.05Q84.35-39.05 84.9-38.55 85.45-38.05 85.45-37.3L85.45-37.3Q85.45-36.55 84.9-36.05 84.35-35.55 83.5-35.55L83.5-35.55Q81.25-35.55 79.77-34.52 78.3-33.5 77.57-31.68 76.85-29.85 76.85-27.5L76.85-27.5 76.85-1.95Q76.85-1.05 76.32-0.53 75.8 0 74.85 0ZM82.85-23L69.8-23Q69-23 68.52-23.48 68.05-23.95 68.05-24.65L68.05-24.65Q68.05-25.4 68.52-25.88 69-26.35 69.8-26.35L69.8-26.35 82.85-26.35Q83.65-26.35 84.12-25.88 84.6-25.4 84.6-24.65L84.6-24.65Q84.6-23.95 84.12-23.48 83.65-23 82.85-23L82.85-23ZM101.49 0L100.44 0Q97.79 0 95.72-1.25 93.64-2.5 92.44-4.67 91.24-6.85 91.24-9.65L91.24-9.65 91.24-34.1Q91.24-34.95 91.77-35.5 92.29-36.05 93.14-36.05L93.14-36.05Q93.99-36.05 94.54-35.5 95.09-34.95 95.09-34.1L95.09-34.1 95.09-9.65Q95.09-7.1 96.59-5.48 98.09-3.85 100.44-3.85L100.44-3.85 101.79-3.85Q102.59-3.85 103.09-3.3 103.59-2.75 103.59-1.9L103.59-1.9Q103.59-1.05 102.99-0.53 102.39 0 101.49 0L101.49 0ZM100.74-23L87.99-23Q87.24-23 86.74-23.48 86.24-23.95 86.24-24.65L86.24-24.65Q86.24-25.4 86.74-25.88 87.24-26.35 87.99-26.35L87.99-26.35 100.74-26.35Q101.49-26.35 101.99-25.88 102.49-25.4 102.49-24.65L102.49-24.65Q102.49-23.95 101.99-23.48 101.49-23 100.74-23L100.74-23ZM116.04 0L116.04 0Q115.39 0 114.89-0.35 114.39-0.7 114.19-1.25L114.19-1.25 106.39-24.65Q106.09-25.9 106.44-26.63 106.79-27.35 107.84-27.35L107.84-27.35Q108.49-27.35 108.99-27 109.49-26.65 109.74-25.9L109.74-25.9 116.69-4.65 115.59-4.65 122.04-25.85Q122.24-26.5 122.72-26.93 123.19-27.35 123.94-27.35L123.94-27.35Q124.69-27.35 125.17-26.95 125.64-26.55 125.84-25.85L125.84-25.85 131.99-5.15 131.14-5.15 137.94-25.9Q138.44-27.35 139.79-27.35L139.79-27.35Q140.89-27.35 141.29-26.53 141.69-25.7 141.29-24.65L141.29-24.65 133.49-1.25Q133.29-0.7 132.81-0.35 132.34 0 131.69 0L131.69 0Q131.04 0 130.52-0.35 129.99-0.7 129.84-1.25L129.84-1.25 123.54-22.15 124.14-22.15 117.84-1.25Q117.64-0.65 117.14-0.33 116.64 0 116.04 0ZM157.89 0.25L157.89 0.25Q154.04 0.25 150.99-1.58 147.94-3.4 146.16-6.55 144.39-9.7 144.39-13.65L144.39-13.65Q144.39-17.65 146.21-20.8 148.04-23.95 151.19-25.78 154.34-27.6 158.29-27.6L158.29-27.6Q162.24-27.6 165.36-25.78 168.49-23.95 170.31-20.8 172.14-17.65 172.19-13.65L172.19-13.65 170.64-12.45Q170.64-8.85 168.96-5.98 167.29-3.1 164.41-1.43 161.54 0.25 157.89 0.25ZM158.29-3.25L158.29-3.25Q161.19-3.25 163.46-4.6 165.74-5.95 167.06-8.33 168.39-10.7 168.39-13.65L168.39-13.65Q168.39-16.65 167.06-19 165.74-21.35 163.46-22.73 161.19-24.1 158.29-24.1L158.29-24.1Q155.44-24.1 153.14-22.73 150.84-21.35 149.49-19 148.14-16.65 148.14-13.65L148.14-13.65Q148.14-10.7 149.49-8.33 150.84-5.95 153.14-4.6 155.44-3.25 158.29-3.25ZM170.24 0L170.24 0Q169.39 0 168.84-0.53 168.29-1.05 168.29-1.9L168.29-1.9 168.29-10.45 169.24-14.4 172.19-13.65 172.19-1.9Q172.19-1.05 171.64-0.53 171.09 0 170.24 0ZM183.49-16.85L181.28-16.85Q181.44-19.95 182.91-22.4 184.38-24.85 186.76-26.25 189.13-27.65 192.03-27.65L192.03-27.65Q194.34-27.65 195.59-27 196.84-26.35 196.53-25.1L196.53-25.1Q196.34-24.35 195.86-24.1 195.38-23.85 194.71-23.9 194.03-23.95 193.19-24L193.19-24Q190.38-24.25 188.21-23.43 186.03-22.6 184.76-20.9 183.49-19.2 183.49-16.85L183.49-16.85ZM181.59 0L181.59 0Q180.69 0 180.19-0.5 179.69-1 179.69-1.9L179.69-1.9 179.69-25.45Q179.69-26.35 180.19-26.85 180.69-27.35 181.59-27.35L181.59-27.35Q182.49-27.35 182.99-26.85 183.49-26.35 183.49-25.45L183.49-25.45 183.49-1.9Q183.49-1 182.99-0.5 182.49 0 181.59 0ZM212.98 0.25L212.98 0.25Q208.93 0.25 205.81-1.53 202.68-3.3 200.91-6.45 199.13-9.6 199.13-13.65L199.13-13.65Q199.13-17.75 200.81-20.88 202.48-24 205.43-25.8 208.38-27.6 212.23-27.6L212.23-27.6Q216.03-27.6 218.86-25.88 221.68-24.15 223.23-21.1 224.78-18.05 224.78-14.15L224.78-14.15Q224.78-13.35 224.28-12.88 223.78-12.4 222.98-12.4L222.98-12.4 201.73-12.4 201.73-15.6 223.38-15.6 221.23-14.05Q221.28-16.95 220.18-19.25 219.08-21.55 217.06-22.85 215.03-24.15 212.23-24.15L212.23-24.15Q209.38-24.15 207.23-22.8 205.08-21.45 203.91-19.07 202.73-16.7 202.73-13.65L202.73-13.65Q202.73-10.6 204.06-8.25 205.38-5.9 207.68-4.55 209.98-3.2 212.98-3.2L212.98-3.2Q214.78-3.2 216.61-3.83 218.43-4.45 219.53-5.4L219.53-5.4Q220.08-5.85 220.78-5.88 221.48-5.9 221.98-5.5L221.98-5.5Q222.63-4.9 222.66-4.2 222.68-3.5 222.08-3L222.08-3Q220.43-1.6 217.88-0.68 215.33 0.25 212.98 0.25ZM271.83 0L248.38 0Q247.53 0 246.98-0.55 246.43-1.1 246.43-1.95L246.43-1.95 246.43-37.1Q246.43-37.95 246.98-38.5 247.53-39.05 248.38-39.05L248.38-39.05 271.83-39.05Q272.63-39.05 273.2-38.53 273.78-38 273.78-37.15L273.78-37.15Q273.78-36.4 273.2-35.85 272.63-35.3 271.83-35.3L271.83-35.3 250.33-35.3 250.33-21.5 265.98-21.5Q266.83-21.5 267.38-20.95 267.93-20.4 267.93-19.6L267.93-19.6Q267.93-18.8 267.38-18.25 266.83-17.7 265.98-17.7L265.98-17.7 250.33-17.7 250.33-3.75 271.83-3.75Q272.63-3.75 273.2-3.2 273.78-2.65 273.78-1.9L273.78-1.9Q273.78-1.05 273.2-0.53 272.63 0 271.83 0L271.83 0ZM303.98 0L303.98 0Q303.13 0 302.58-0.55 302.03-1.1 302.03-1.9L302.03-1.9 302.03-14.9Q302.03-18 300.85-20 299.68-22 297.65-23 295.63-24 293.08-24L293.08-24Q290.63-24 288.65-23.05 286.68-22.1 285.53-20.45 284.38-18.8 284.38-16.7L284.38-16.7 281.63-16.7Q281.73-19.85 283.33-22.33 284.93-24.8 287.58-26.23 290.23-27.65 293.48-27.65L293.48-27.65Q297.03-27.65 299.83-26.18 302.63-24.7 304.25-21.85 305.88-19 305.88-14.9L305.88-14.9 305.88-1.9Q305.88-1.1 305.33-0.55 304.78 0 303.98 0ZM282.48 0L282.48 0Q281.58 0 281.05-0.53 280.53-1.05 280.53-1.9L280.53-1.9 280.53-25.4Q280.53-26.3 281.05-26.83 281.58-27.35 282.48-27.35L282.48-27.35Q283.33-27.35 283.85-26.83 284.38-26.3 284.38-25.4L284.38-25.4 284.38-1.9Q284.38-1.05 283.85-0.53 283.33 0 282.48 0ZM326.42 0.25L326.42 0.25Q322.47 0.25 319.42-1.53 316.37-3.3 314.65-6.45 312.92-9.6 312.92-13.65L312.92-13.65Q312.92-17.75 314.72-20.9 316.52-24.05 319.67-25.83 322.82-27.6 326.82-27.6L326.82-27.6Q330.87-27.6 334-25.83 337.12-24.05 338.9-20.9 340.67-17.75 340.72-13.65L340.72-13.65 338.47-12.45Q338.47-8.75 336.92-5.88 335.37-3 332.65-1.38 329.92 0.25 326.42 0.25ZM326.92 10.8L326.92 10.8Q322.97 10.8 319.97 9.33 316.97 7.85 315.02 5.3L315.02 5.3Q314.47 4.7 314.55 4 314.62 3.3 315.27 2.85L315.27 2.85Q315.92 2.4 316.72 2.55 317.52 2.7 317.97 3.3L317.97 3.3Q319.42 5.1 321.7 6.2 323.97 7.3 326.97 7.3L326.97 7.3Q329.77 7.3 332.02 5.95 334.27 4.6 335.6 2.15 336.92-0.3 336.92-3.6L336.92-3.6 336.92-11.2 338.37-14.1 340.72-13.65 340.72-3.45Q340.72 0.6 338.92 3.83 337.12 7.05 334.02 8.93 330.92 10.8 326.92 10.8ZM326.82-3.25L326.82-3.25Q329.77-3.25 332.05-4.58 334.32-5.9 335.62-8.25 336.92-10.6 336.92-13.65L336.92-13.65Q336.92-16.7 335.62-19.07 334.32-21.45 332.05-22.78 329.77-24.1 326.82-24.1L326.82-24.1Q323.87-24.1 321.57-22.78 319.27-21.45 317.97-19.07 316.67-16.7 316.67-13.65L316.67-13.65Q316.67-10.6 317.97-8.25 319.27-5.9 321.57-4.58 323.87-3.25 326.82-3.25ZM350.97 0L350.97 0Q350.07 0 349.55-0.53 349.02-1.05 349.02-1.95L349.02-1.95 349.02-25.4Q349.02-26.3 349.55-26.83 350.07-27.35 350.97-27.35L350.97-27.35Q351.82-27.35 352.35-26.83 352.87-26.3 352.87-25.4L352.87-25.4 352.87-1.95Q352.87-1.05 352.35-0.53 351.82 0 350.97 0ZM350.92-32.55L350.92-32.55Q349.82-32.55 349.02-33.35 348.22-34.15 348.22-35.3L348.22-35.3Q348.22-36.55 349.05-37.27 349.87-38 350.97-38L350.97-38Q352.02-38 352.85-37.27 353.67-36.55 353.67-35.3L353.67-35.3Q353.67-34.15 352.87-33.35 352.07-32.55 350.92-32.55ZM386.12 0L386.12 0Q385.27 0 384.72-0.55 384.17-1.1 384.17-1.9L384.17-1.9 384.17-14.9Q384.17-18 382.99-20 381.82-22 379.79-23 377.77-24 375.22-24L375.22-24Q372.77-24 370.79-23.05 368.82-22.1 367.67-20.45 366.52-18.8 366.52-16.7L366.52-16.7 363.77-16.7Q363.87-19.85 365.47-22.33 367.07-24.8 369.72-26.23 372.37-27.65 375.62-27.65L375.62-27.65Q379.17-27.65 381.97-26.18 384.77-24.7 386.39-21.85 388.02-19 388.02-14.9L388.02-14.9 388.02-1.9Q388.02-1.1 387.47-0.55 386.92 0 386.12 0ZM364.62 0L364.62 0Q363.72 0 363.19-0.53 362.67-1.05 362.67-1.9L362.67-1.9 362.67-25.4Q362.67-26.3 363.19-26.83 363.72-27.35 364.62-27.35L364.62-27.35Q365.47-27.35 365.99-26.83 366.52-26.3 366.52-25.4L366.52-25.4 366.52-1.9Q366.52-1.05 365.99-0.53 365.47 0 364.62 0ZM408.92 0.25L408.92 0.25Q404.87 0.25 401.74-1.53 398.62-3.3 396.84-6.45 395.07-9.6 395.07-13.65L395.07-13.65Q395.07-17.75 396.74-20.88 398.42-24 401.37-25.8 404.32-27.6 408.17-27.6L408.17-27.6Q411.97-27.6 414.79-25.88 417.62-24.15 419.17-21.1 420.72-18.05 420.72-14.15L420.72-14.15Q420.72-13.35 420.22-12.88 419.72-12.4 418.92-12.4L418.92-12.4 397.67-12.4 397.67-15.6 419.32-15.6 417.17-14.05Q417.22-16.95 416.12-19.25 415.02-21.55 412.99-22.85 410.97-24.15 408.17-24.15L408.17-24.15Q405.32-24.15 403.17-22.8 401.02-21.45 399.84-19.07 398.67-16.7 398.67-13.65L398.67-13.65Q398.67-10.6 399.99-8.25 401.32-5.9 403.62-4.55 405.92-3.2 408.92-3.2L408.92-3.2Q410.72-3.2 412.54-3.83 414.37-4.45 415.47-5.4L415.47-5.4Q416.02-5.85 416.72-5.88 417.42-5.9 417.92-5.5L417.92-5.5Q418.57-4.9 418.59-4.2 418.62-3.5 418.02-3L418.02-3Q416.37-1.6 413.82-0.68 411.27 0.25 408.92 0.25ZM438.61 0.25L438.61 0.25Q434.56 0.25 431.44-1.53 428.31-3.3 426.54-6.45 424.76-9.6 424.76-13.65L424.76-13.65Q424.76-17.75 426.44-20.88 428.11-24 431.06-25.8 434.01-27.6 437.86-27.6L437.86-27.6Q441.66-27.6 444.49-25.88 447.31-24.15 448.86-21.1 450.41-18.05 450.41-14.15L450.41-14.15Q450.41-13.35 449.91-12.88 449.41-12.4 448.61-12.4L448.61-12.4 427.36-12.4 427.36-15.6 449.01-15.6 446.86-14.05Q446.91-16.95 445.81-19.25 444.71-21.55 442.69-22.85 440.66-24.15 437.86-24.15L437.86-24.15Q435.01-24.15 432.86-22.8 430.71-21.45 429.54-19.07 428.36-16.7 428.36-13.65L428.36-13.65Q428.36-10.6 429.69-8.25 431.01-5.9 433.31-4.55 435.61-3.2 438.61-3.2L438.61-3.2Q440.41-3.2 442.24-3.83 444.06-4.45 445.16-5.4L445.16-5.4Q445.71-5.85 446.41-5.88 447.11-5.9 447.61-5.5L447.61-5.5Q448.26-4.9 448.29-4.2 448.31-3.5 447.71-3L447.71-3Q446.06-1.6 443.51-0.68 440.96 0.25 438.61 0.25ZM460.71-16.85L458.51-16.85Q458.66-19.95 460.14-22.4 461.61-24.85 463.99-26.25 466.36-27.65 469.26-27.65L469.26-27.65Q471.56-27.65 472.81-27 474.06-26.35 473.76-25.1L473.76-25.1Q473.56-24.35 473.09-24.1 472.61-23.85 471.94-23.9 471.26-23.95 470.41-24L470.41-24Q467.61-24.25 465.44-23.43 463.26-22.6 461.99-20.9 460.71-19.2 460.71-16.85L460.71-16.85ZM458.81 0L458.81 0Q457.91 0 457.41-0.5 456.91-1 456.91-1.9L456.91-1.9 456.91-25.45Q456.91-26.35 457.41-26.85 457.91-27.35 458.81-27.35L458.81-27.35Q459.71-27.35 460.21-26.85 460.71-26.35 460.71-25.45L460.71-25.45 460.71-1.9Q460.71-1 460.21-0.5 459.71 0 458.81 0Z" opacity="1" transform="matrix(1,0,0,1,0,0)" fill="#7c4e29" class="slogan-text-1" data-fill-palette-color="secondary" id="text-1"></path></svg></g></svg></g></svg></g></svg></g></svg></g></svg></g></svg></g><g><path d="M245.816 0c68.262 0 123.6 55.338 123.6 123.6 0 68.262-55.338 123.6-123.6 123.6-46.416 0-86.856-25.585-107.987-63.422h3.318c20.846 36.18 59.913 60.536 104.669 60.536 66.669 0 120.714-54.046 120.714-120.714 0-66.669-54.046-120.714-120.714-120.714-44.755 0-83.822 24.356-104.669 60.536l-3.318 0c21.131-37.837 61.571-63.422 107.987-63.422z" fill="#d9bca9" stroke="transparent" data-fill-palette-color="tertiary"></path></g></svg></g><defs></defs></svg><rect width="395.52" height="247.2" fill="none" stroke="none" visibility="hidden"></rect></g></svg></g></svg>